<svg id="Capa_1" enable-background="new 0 0 511.972 511.972" height="512" viewBox="0 0 511.972 511.972" width="512" xmlns="http://www.w3.org/2000/svg"><g><path d="m282.189 425.389c-12.029-12.029-26.208-20.585-41.301-25.672-9.253-3.119-12.756-14.478-6.859-22.26 11.068-14.607 16.495-32.584 15.643-50.598-.507-10.712 8.323-19.544 19.035-19.037 18.016.852 35.994-4.578 50.598-15.643 7.783-5.897 19.142-2.395 22.261 6.859 5.087 15.093 13.643 29.273 25.672 41.303 12.03 12.029 26.208 20.585 41.301 25.672 9.253 3.119 12.756 14.478 6.859 22.26-11.068 14.607-16.495 32.584-15.643 50.598.507 10.712-8.323 19.544-19.035 19.037-18.016-.852-35.994 4.578-50.598 15.643-7.783 5.897-19.142 2.395-22.261-6.859-5.086-15.094-13.642-29.273-25.672-41.303z" fill="#88d37f"/><path d="m282.189 425.389c-12.029-12.029-26.208-20.585-41.301-25.672-9.253-3.119-12.756-14.478-6.859-22.26 11.068-14.607 16.495-32.584 15.643-50.598-.507-10.712 8.323-19.544 19.035-19.037 18.016.852 35.994-4.578 50.598-15.643 7.783-5.897 19.142-2.395 22.261 6.859 5.087 15.093 13.643 29.273 25.672 41.303 12.03 12.029 26.208 20.585 41.301 25.672 9.253 3.119 12.756 14.478 6.859 22.26-11.068 14.607-16.495 32.584-15.643 50.598.507 10.712-8.323 19.544-19.035 19.037-18.016-.852-35.994 4.578-50.598 15.643-7.783 5.897-19.142 2.395-22.261-6.859-5.086-15.094-13.642-29.273-25.672-41.303z" fill="#88d37f"/><path d="m408.539 366.012c-15.093-5.087-29.272-13.642-41.301-25.672-12.03-12.03-20.586-26.209-25.672-41.303-3.119-9.253-14.478-12.755-22.261-6.859-14.605 11.065-32.582 16.495-50.598 15.643-10.711-.507-19.541 8.326-19.035 19.037.205 4.341.037 8.678-.478 12.968 6.841 7.196 11.302 16.372 12.656 26.194 4.147 30.092 36.799 47.282 63.932 33.828 21.306-10.565 46.59-10.555 67.878.001 4.117 2.041 8.347 3.364 12.578 4.06 2.414-5.504 5.465-10.761 9.159-15.638 5.899-7.781 2.395-19.14-6.858-22.259z" fill="#5ec682"/><path d="m359.721 361.736c-17.012 0-33.088 3.976-47.357 11.051-8.748 4.338-19.257-1.217-20.591-10.89-2.502-18.155-11.377-34.704-24.717-46.839-7.933-7.216-7.934-19.705-.002-26.921 13.342-12.137 22.214-28.689 24.717-46.84 1.334-9.673 11.842-15.229 20.591-10.891 14.27 7.076 30.346 11.052 47.359 11.052 17.012 0 33.088-3.976 47.357-11.051 8.748-4.338 19.257 1.217 20.591 10.89 2.502 18.155 11.377 34.704 24.717 46.839 7.933 7.216 7.934 19.705.002 26.921-13.342 12.137-22.214 28.689-24.717 46.84-1.334 9.673-11.842 15.229-20.591 10.891-14.27-7.076-30.347-11.052-47.359-11.052z" fill="#90daaa"/><path d="m69.833 488.282c-21.627-21.627-21.626-56.69 0-78.316l216.874-216.874c17.108-17.108 17.108-44.946 0-62.055-17.108-17.108-44.946-17.108-62.054 0-21.627 21.627-56.69 21.626-78.316 0s-21.627-56.69 0-78.316c60.292-60.292 158.395-60.292 218.687 0 60.293 60.293 60.293 158.395 0 218.687l-216.874 216.874c-21.627 21.626-56.69 21.626-78.317 0z" fill="#fbf1cf"/><path d="m270.855 8.245c1.893 37.305-6.526 80.893-14.109 109.986 10.878.262 21.677 4.522 29.961 12.806 13.349 13.349 16.281 33.229 8.799 49.449 30.288 5.432 75.857 8.608 113.091 4.148 6.838-46.735-7.684-96.023-43.574-131.913-26.29-26.291-59.769-41.113-94.168-44.476z" fill="#e68a97"/><path d="m274.057 362.374c-15.218-34.539-30.719-86.236-34.926-121.707l-87.264 87.264c4.206 35.471 19.708 87.168 34.926 121.707z" fill="#e68a97"/><path d="m224.652 131.037c2.426-2.427 5.074-4.496 7.871-6.235-38.541-17.928-48.137-84.023-16.068-112.272-25.707 6.697-50.016 20.087-70.12 40.191-21.627 21.627-21.626 56.69 0 78.316s56.691 21.627 78.317 0z" fill="#fae0bd"/><path d="m69.833 409.965c-21.626 21.626-21.627 56.69 0 78.316 21.627 21.627 56.69 21.626 78.316 0l38.643-38.643c-15.218-34.539-30.72-86.236-34.926-121.707z" fill="#fae0bd"/><path d="m151.867 327.931c4.206 35.471 19.707 87.168 34.926 121.707l46.224-46.224c-46.119-8.612-55.178-73.17-46.254-110.379z" fill="#e26e7e"/><path d="m457.433 282.587c-12.167-11.066-20.099-26.094-22.334-42.315-1.881-13.641-15.946-22.269-29.06-17.558 23.426-58.306 11.723-127.863-35.711-175.297-59.698-59.697-155.573-63.431-219.645-8.906-3.154 2.684-3.535 7.418-.851 10.573 2.685 3.155 7.419 3.535 10.572.851 27.635-23.518 64.008-36.794 103.168-34.714.24 16.68-1.259 49.775-12.707 95.715-11.509 1.074-22.723 6.005-31.516 14.798-18.668 18.666-49.042 18.668-67.71 0-12.962-12.963-17.397-32.517-11.298-49.816 1.377-3.906-.673-8.189-4.579-9.567-3.909-1.377-8.19.673-9.567 4.58-8.008 22.713-2.184 48.388 14.838 65.41 24.517 24.516 64.408 24.515 88.923 0 13.999-13.999 37.116-14.332 51.448 0 14.185 14.184 14.185 37.264 0 51.448l-216.874 216.873c-24.516 24.516-24.516 64.407 0 88.923s64.405 24.516 88.923 0l86.312-86.312c28.664 10.089 51.276 32.99 60.989 61.813 4.75 14.092 22.045 19.421 33.897 10.441 13.053-9.888 29.302-14.905 45.715-14.129 7.688.365 15.052-2.695 20.229-8.388 2.787-3.064 2.561-7.808-.503-10.595s-7.807-2.563-10.595.503c-2.158 2.373-5.246 3.655-8.423 3.497-19.925-.938-39.634 5.151-55.482 17.157-3.702 2.805-9.139 1.129-10.624-3.276-10.628-31.529-34.401-56.263-63.613-68.614l32.955-32.955c1.937 13.78 15.32 21.806 27.824 18.165l32.609 32.609c2.93 2.929 7.678 2.929 10.607 0s2.929-7.678 0-10.606l-28.198-28.198c23.986-8.353 51.876-7.447 76.593 4.809 2.149 1.066 4.438 1.745 6.766 2.056-.228.771-.585 1.51-1.092 2.18-7.246 9.563-12.304 20.359-15.03 32.089-.939 4.035 1.571 8.066 5.607 9.004 4.018.934 8.062-1.557 9.003-5.607 2.247-9.664 6.411-18.555 12.376-26.427 3.256-4.296 4.741-9.584 4.343-14.821 5.084-3.455 8.535-8.93 9.38-15.061 2.237-16.221 10.169-31.25 22.334-42.316 11.197-10.181 11.194-27.833.001-38.016zm-165.422-156.853c-7.357-7.357-16.409-12.001-25.91-13.954 5.694-23.458 12.882-60.212 12.508-94.998 30.639 4.787 58.963 19.095 81.11 41.243 32.686 32.686 46.738 77.05 42.178 119.786-33.582 3.264-70.702.584-96.39-3.283 4.204-16.927-.292-35.589-13.496-48.794zm-149.164 357.245c-18.668 18.668-49.043 18.667-67.71 0-18.667-18.668-18.667-49.043 0-67.71l71.531-71.531c5.637 31.697 17.765 72.428 31.224 104.195zm46.521-46.522c-13.666-33.703-25.53-75.939-29.594-105.826l74.158-74.157c5.637 31.696 17.765 72.427 31.224 104.195zm87.264-87.264c-13.666-33.704-25.529-75.94-29.593-105.826 44.564-45.207 46.96-45.452 52.523-54.59 29.999 4.835 67.718 7.002 99.897 4.316-5.734 26.775-18.977 52.25-39.738 73.011zm170.708-39.684c-14.76 13.427-24.384 31.668-27.1 51.363-.634 4.602-5.666 7.26-9.829 5.196-31.85-15.793-69.5-15.809-101.38 0-4.161 2.062-9.194-.592-9.829-5.195-.498-3.612-1.257-7.227-2.238-10.798l40.978-40.978h49.155c4.142 0 7.5-3.358 7.5-7.5s-3.358-7.5-7.5-7.5h-34.155c11.737-12.626 28.115-24.828 43.244-51.113 4.882-1.642 9.659-3.594 14.225-5.858 4.16-2.065 9.195.593 9.829 5.195 2.714 19.695 12.339 37.936 27.1 51.363 4.63 4.213 4.703 11.546 0 15.825z"/></g></svg>