<svg id="Capa_1" enable-background="new 0 0 512 512" height="512" viewBox="0 0 512 512" width="512" xmlns="http://www.w3.org/2000/svg"><g><path d="m209.69 7.5c-38.503 0-69.828 31.325-69.828 69.828 0 17.337 6.672 42.917 16.602 63.65 18.052 37.691 38.909 45.602 53.226 45.602s35.173-7.911 53.226-45.602c9.93-20.733 16.602-46.313 16.602-63.65 0-38.503-31.325-69.828-69.828-69.828zm18.539 114.345c-8.798 19.247-16.62 24.641-18.538 25.183-1.918-.542-9.741-5.937-18.538-25.183-7.721-16.892-11.761-35.182-11.761-44.517 0-16.708 13.592-30.3 30.3-30.3s30.3 13.592 30.3 30.3c-.002 9.336-4.042 27.625-11.763 44.517z" fill="#90daaa"/><path d="m275.035 107.499c-11.041 1.42-21.758 2.215-30.284 2.215-3.51 0-7.393-.135-11.515-.393-1.445 4.157-3.114 8.382-5.008 12.525-8.798 19.247-16.62 24.641-18.538 25.183-1.919-.542-9.741-5.937-18.539-25.183-3.035-6.64-5.492-13.489-7.368-19.932-7.106-1.748-13.486-3.731-18.449-5.891-7.975-3.47-16.249-5.239-24.431-5.505 2.231 15.723 7.925 34.518 15.561 50.461 18.052 37.691 38.909 45.602 53.226 45.602s35.173-7.911 53.226-45.602c5.022-10.486 9.206-22.209 12.119-33.48z" fill="#6fcd90"/><path d="m349.676 283.444v-107.011h-209.85v163.46c0 27.452 10.905 53.779 30.316 73.19l60.685 60.685c40.976 40.976 107.411 40.976 148.386 0 40.976-40.976 40.976-107.411 0-148.386l-20.769-20.769c-5.613-5.615-8.768-13.229-8.768-21.169z" fill="#e68a97"/><path d="m139.826 228.211c35.279 10.208 76.401 14.95 104.925 14.95s69.646-4.742 104.925-14.95v-51.778h-209.85z" fill="#e26e7e"/><path d="m244.751 213.161c-34.531 0-87.076-7.654-120.693-22.282-18.598-8.093-27.114-29.729-19.021-48.327 8.093-18.597 29.729-27.114 48.327-19.021 22.97 9.996 65.322 16.183 91.388 16.183s68.417-6.187 91.388-16.183c18.599-8.092 40.234.424 48.327 19.021s-.423 40.234-19.021 48.327c-33.619 14.628-86.164 22.282-120.695 22.282z" fill="#fbf1cf"/><path d="m139.826 300.475v39.418c0 27.452 10.905 53.779 30.316 73.19l27.873 27.873c14.892-14.892 24.103-35.465 24.103-58.189 0-45.449-36.843-82.292-82.292-82.292z" fill="#eda1ab"/><path d="m234.7 212.963c-33.053-13.279-34.613-58.145-20.083-75.222-21.985-2.572-45.93-7.542-61.254-14.21-18.597-8.093-40.234.424-48.327 19.021s.423 40.234 19.021 48.327c30.499 13.27 76.573 20.8 110.643 22.084z" fill="#fae0bd"/><path d="m321.368 415.922c-23.447 23.447-28.007 58.902-14.167 88.552 26.121-.539 52.08-10.772 72.013-30.706 19.934-19.934 30.166-45.892 30.706-72.014-29.65-13.839-65.105-9.279-88.552 14.168z" fill="#eda1ab"/><path d="m384.517 320.079-20.769-20.77c-4.237-4.238-6.571-9.872-6.571-15.865v-81.275c3.927-1.396 7.701-2.865 11.261-4.414 22.412-9.753 32.659-35.782 22.905-58.196-9.729-22.359-35.837-32.635-58.196-22.905-14.34 6.24-36.648 10.934-57.463 13.46 7.02-18.471 11.335-38.18 11.335-52.786-.001-42.639-34.69-77.328-77.329-77.328-13.877 0-27.498 3.736-39.393 10.804-3.561 2.116-4.732 6.718-2.617 10.279 2.116 3.561 6.717 4.733 10.279 2.617 9.578-5.692 20.55-8.7 31.731-8.7 34.368 0 62.328 27.96 62.328 62.328 0 14.5-5.214 35.864-13.152 54.376-9.961.658-17.513.67-27.172.07 10.26-19.348 15.796-42.437 15.796-54.447 0-20.843-16.957-37.8-37.8-37.8s-37.8 16.957-37.8 37.8c0 13.769 6.214 34.081 12.538 47.845-17.935-3.948-25.022-7.375-29.81-9.224-4.627-14.316-7.257-28.229-7.257-38.621 0-10.897 2.866-21.627 8.289-31.029 2.069-3.588.838-8.175-2.75-10.244s-8.175-.838-10.244 2.75c-6.735 11.678-10.294 24.999-10.294 38.523 0 9.979 2.044 22.56 5.709 35.672-16.82.269-32.773 10.155-39.911 26.559-9.753 22.412.491 48.443 22.905 58.196 3.56 1.549 7.333 3.018 11.261 4.414v137.724c0 29.65 11.547 57.527 32.513 78.494l60.685 60.685c43.219 43.22 112.82 43.869 156.846 2.092 3.004-2.851 3.129-7.598.278-10.603-2.851-3.004-7.598-3.129-10.603-.278-16.479 15.638-37.527 24.859-59.986 26.46-10.277-26.419-4.679-56.225 14.613-75.517 19.309-19.308 49.15-24.899 75.586-14.585-.928 12.663-4.349 25.283-10.385 37.137-1.879 3.691-.411 8.207 3.28 10.087 3.707 1.888 8.215.394 10.087-3.28 22.155-43.509 13.827-95.956-20.723-130.505zm-174.827-265.551c12.572 0 22.8 10.228 22.8 22.8 0 12.039-7.225 37.095-17.237 52.957-4.004-.468-8.07-1.018-12.133-1.645-9.689-16.257-16.229-40.041-16.229-51.312-.001-12.572 10.227-22.8 22.799-22.8zm-82.639 129.473c-14.809-6.444-21.583-23.645-15.137-38.457 6.452-14.825 23.73-21.546 38.457-15.137 24.246 10.551 68.148 16.806 94.38 16.806 26.427 0 70.299-6.327 94.38-16.805 14.777-6.43 32.028.361 38.458 15.136 6.444 14.809-.325 32.011-15.137 38.457-31.855 13.862-82.808 21.659-117.701 21.659-34.768.001-85.733-7.748-117.7-21.659zm48.395 223.779c-18.133-18.134-28.12-42.243-28.12-67.887v-31.542c37.732 3.774 67.292 35.707 67.292 74.415 0 17.457-5.941 33.999-16.865 47.321zm140.619 2.839c-22.709 22.708-29.506 55.904-19.962 85.973-22.658-2.052-43.721-11.876-59.972-28.127l-27.742-27.742c13.729-16.188 21.23-36.49 21.23-57.956 0-46.986-36.277-85.653-82.292-89.476v-86.364c31.932 9.046 70.186 13.733 97.425 13.733s65.494-4.688 97.425-13.733v76.517c0 10 3.894 19.401 10.965 26.472l20.769 20.77c16.564 16.563 26.158 37.874 28.189 59.991-30.04-9.56-63.269-2.825-86.035 19.942zm-133.762-167.217c-4.142 0-7.5 3.358-7.5 7.5v12c0 4.142 3.358 7.5 7.5 7.5s7.5-3.358 7.5-7.5v-12c0-4.142-3.358-7.5-7.5-7.5zm83.84 13.488c-3.123-2.721-7.86-2.396-10.582.727-2.73 3.132-6.669 4.929-10.81 4.929s-8.081-1.796-10.81-4.929c-2.721-3.123-7.459-3.447-10.582-.727-3.123 2.722-3.448 7.459-.727 10.582 5.579 6.402 13.641 10.073 22.119 10.073 8.477 0 16.54-3.671 22.119-10.073 2.721-3.123 2.396-7.86-.727-10.582zm41.057-13.488c-4.142 0-7.5 3.358-7.5 7.5v12c0 4.142 3.358 7.5 7.5 7.5s7.5-3.358 7.5-7.5v-12c0-4.142-3.358-7.5-7.5-7.5z"/></g></svg>