<svg id="Capa_1" enable-background="new 0 0 512 512" height="512" viewBox="0 0 512 512" width="512" xmlns="http://www.w3.org/2000/svg"><g><path d="m12.546 170.84c.984-18.607 16.109-33.732 34.717-34.716 7.777-.411 15.057 1.602 21.162 5.346 3.052 1.872 6.955 1.872 10.008 0 6.105-3.744 13.385-5.757 21.162-5.346 18.607.984 33.733 16.109 34.717 34.716.411 7.777-1.602 15.057-5.345 21.163-1.872 3.053-1.872 6.956 0 10.009 3.744 6.106 5.757 13.386 5.345 21.164-.985 18.607-16.111 33.731-34.718 34.715-7.777.411-15.056-1.602-21.161-5.346-3.053-1.872-6.956-1.872-10.008 0-6.105 3.744-13.384 5.757-21.161 5.346-18.607-.983-33.733-16.108-34.718-34.715-.412-7.778 1.601-15.058 5.345-21.164 1.872-3.053 1.872-6.956 0-10.009-3.744-6.105-5.756-13.385-5.345-21.163z" fill="#cde9fa"/><path d="m67.685 173.635c-22.63-113.071 131.904-166.135 231.398-166.135s180.15 57.008 180.15 127.33c0 0-380.581 193.539-411.548 38.805z" fill="#e68a97"/><path d="m182.472 27.957c-70.403 24.888-129.368 72.827-114.787 145.678 15.871 79.3 123.566 67.123 224.8 36.407-126.098-9.386-140.437-149.529-110.013-182.085z" fill="#e26e7e"/><path d="m439.576 504.5c20.421 0 35.823-18.878 31.344-38.802-17.673-78.607-87.9-137.33-171.843-137.33s-154.171 58.723-171.843 137.33c-4.479 19.923 10.924 38.802 31.344 38.802z" fill="#e68a97"/><path d="m299.077 328.369c-58.126 0-109.669 28.162-141.748 71.58 11.6 5.436 24.399 8.871 38.276 10.212 21.798 34.13 63.328 51.798 103.471 51.798h.012c40.148 0 81.669-17.661 103.471-51.798 13.873-1.341 26.669-4.775 38.268-10.208-32.077-43.421-83.622-71.584-141.75-71.584z" fill="#e26e7e"/><path d="m334.728 504.5c0-19.69-15.962-35.651-35.651-35.651s-35.651 15.962-35.651 35.651z" fill="#565e75"/><path d="m457.619 253.741c0-76.464-70.979-138.451-158.536-138.451s-158.536 61.987-158.536 138.451 56.308 123.869 158.536 123.869 158.536-47.404 158.536-123.869z" fill="#ffd3bd"/><path d="m451.168 214.555c-19.355-57.378-80.114-99.265-152.085-99.265s-132.73 41.886-152.085 99.265c42.655-14.306 110.147-22.026 152.085-22.026s109.429 7.719 152.085 22.026z" fill="#ffbe9d"/><g><g fill="#eda1ab"><ellipse cx="219.438" cy="254.719" rx="29.387" ry="23.403"/><ellipse cx="378.728" cy="254.719" rx="29.387" ry="23.403"/></g></g><path d="m328.703 267.538c4.066 13.935 9.653 55.563 51.016 55.563 34.681 0 68.339-36.053 42.973-158.045h42.643c24.457 37.473 40.944 208.758-69.362 215.536-6.997.43-13.419 4.279-16.868 10.382-15.709 27.799-49.745 40.985-80.016 40.985h-.012c-30.271 0-64.307-13.186-80.016-40.985-3.449-6.103-9.871-9.952-16.868-10.382-110.307-6.778-93.819-178.063-69.362-215.536h42.643c-25.366 121.992 8.292 158.045 42.973 158.045 41.363 0 46.95-41.627 51.016-55.563z" fill="#fbf1cf"/><g fill="#fae0bd"><path d="m465.335 165.056h-42.642c3.298 15.86 5.59 30.255 7.02 43.32 7.712 1.92 15.005 4.006 21.684 6.254 9.805 3.301 19.875 3.884 29.394 2.163-3.174-22.864-9.04-41.906-15.456-51.737z"/><path d="m175.473 165.056h-42.643c-6.416 9.831-12.282 28.872-15.455 51.734 9.525 1.722 19.597 1.138 29.394-2.161 6.679-2.248 13.972-4.334 21.684-6.254 1.43-13.064 3.722-27.459 7.02-43.319z"/></g><path d="m460.968 186.197c-46.159-15.538-116.378-23.668-161.885-23.668-45.508 0-115.727 8.13-161.885 23.668-15.291 5.148-31.862-3.075-37.011-18.369-5.147-15.292 3.076-31.862 18.369-37.01 54.539-18.359 131.812-26.722 180.527-26.722 48.716 0 125.988 8.362 180.527 26.722 15.292 5.148 23.516 21.718 18.369 37.01-5.14 15.266-21.694 23.525-37.011 18.369z" fill="#cde9fa"/><path d="m332.336 296.454c1.987.367 4.011.6 6.059.716-5.684-11.26-7.845-23.302-9.692-29.631h-59.241c-1.847 6.329-4.008 18.372-9.692 29.632 2.049-.116 4.072-.349 6.059-.716 9.524 7.037 20.674 10.594 33.254 10.594 12.578-.001 23.729-3.559 33.253-10.595z" fill="#fae0bd"/><path d="m299.083 287.048c10.161 0 18.498-3.338 25.501-10.22 1.785-1.755 4.418-2.229 6.757-1.338 5.179 1.974 10.654 2.156 15.633 1.232 9.834-1.825 14.7-13.12 9.094-21.404-10.526-15.552-26.775-30.353-56.984-30.353-30.215 0-46.464 14.807-56.99 30.363-5.473 8.089-1.015 19.345 8.557 21.289 5.122 1.04 10.808.92 16.176-1.126 2.339-.892 4.971-.417 6.757 1.338 7.001 6.881 15.337 10.219 25.499 10.219z" fill="#fbf1cf"/><path d="m224.351 207.279c-4.142 0-7.5 3.358-7.5 7.5v12c0 4.142 3.358 7.5 7.5 7.5s7.5-3.358 7.5-7.5v-12c0-4.142-3.358-7.5-7.5-7.5zm149.464 27c4.142 0 7.5-3.358 7.5-7.5v-12c0-4.142-3.358-7.5-7.5-7.5s-7.5 3.358-7.5 7.5v12c0 4.142 3.358 7.5 7.5 7.5zm112.45-108.819c-3.19-33.68-23.449-64.849-57.516-88.212-35.026-24.019-81.076-37.248-129.666-37.248-49.681 0-105.3 12.375-148.783 33.102-3.739 1.782-5.325 6.258-3.543 9.997s6.259 5.326 9.997 3.543c41.566-19.813 94.773-31.642 142.329-31.642 45.592 0 88.629 12.294 121.182 34.619 27.929 19.153 45.403 43.843 50.142 70.437-54.26-16.084-125.369-23.459-171.324-23.459-49.307 0-127.581 8.485-182.92 27.114-19.187 6.459-29.542 27.324-23.084 46.511 3.578 10.628 11.577 18.542 21.261 22.394-1.857 7.563-3.364 15.68-4.492 24.081-19.145-8.691-30.566-23.335-34.809-44.533-4.435-22.158-1.743-42.953 8.001-61.807 8.871-17.167 23.549-32.832 43.624-46.56 3.419-2.338 4.295-7.005 1.958-10.424-2.338-3.42-7.006-4.295-10.424-1.958-32.134 21.974-51.67 48.64-57.98 78.56-27.775-7.09-53.747 13.767-55.16 40.47-.477 9.019 1.751 17.829 6.441 25.479.398.649.398 1.52 0 2.168-4.691 7.65-6.918 16.461-6.441 25.481 1.729 32.678 38.471 53.034 67.29 35.366.648-.396 1.518-.397 2.166.001 10.3 6.315 22.276 7.894 33.159 5.337 1.322 29.609 8.103 61.839 25.149 86.073 8.845 12.574 19.7 22.055 32.454 28.399-22.539 23.936-38.142 53.206-45.359 85.305-5.523 24.561 13.378 47.946 38.661 47.946h258.835c4.142 0 7.5-3.358 7.5-7.5s-3.358-7.5-7.5-7.5h-75.85c-3.562-20.229-21.25-35.651-42.485-35.651s-38.924 15.422-42.485 35.651h-98.014c-15.694 0-27.435-14.497-24.027-29.657 7.077-31.479 22.961-59.988 46.001-82.747 6.654 1.858 13.716 3.022 21.181 3.481 4.523.278 8.66 2.801 10.798 6.585 18.685 33.064 58.299 44.795 86.558 44.795 28.247 0 67.861-11.732 86.546-44.795 2.139-3.784 6.277-6.308 10.799-6.585 7.461-.458 14.521-1.622 21.172-3.479 23.038 22.759 38.921 51.267 45.998 82.744 2.511 11.168-3.333 22.732-13.895 27.495-3.776 1.703-5.456 6.145-3.753 9.92 1.708 3.788 6.154 5.451 9.92 3.753 17.023-7.677 26.428-26.375 22.363-44.459-7.217-32.097-22.819-61.366-45.356-85.301 12.758-6.344 23.616-15.826 32.463-28.403 18.447-26.226 23.816-60.277 25.072-84.225 1.288-24.561-1.167-51.429-6.593-73.515 9.684-3.853 17.686-11.761 21.263-22.388 5.959-17.708-2.412-36.839-18.824-44.759zm-378.807 123.251c-8.17 2.974-17.46 2.127-25.104-2.559-5.422-3.325-12.428-3.325-17.85-.001-18.971 11.634-43.322-1.7-44.469-23.372-.316-5.973 1.153-11.798 4.25-16.848 3.324-5.421 3.324-12.427 0-17.849-3.096-5.049-4.565-10.875-4.25-16.846.976-18.466 19.483-32.219 38.139-26.257-.611 9.758.092 19.813 2.156 30.127 5.535 27.657 21.634 46.865 47.885 57.176-.414 5.462-.669 10.959-.757 16.429zm191.619 227.638c12.926 0 23.837 8.759 27.129 20.651h-54.258c3.292-11.892 14.203-20.651 27.129-20.651zm176.36-211.01c-1.152 21.98-5.967 53.074-22.361 76.38-13.586 19.314-32.952 29.874-57.562 31.387-9.682.594-18.257 5.895-22.939 14.177-9.691 17.149-34.751 37.175-73.498 37.175-38.735 0-63.795-20.026-73.486-37.175-4.681-8.283-13.256-13.582-22.938-14.177-24.61-1.512-43.977-12.072-57.564-31.387-28.745-40.866-25.338-108.92-15.933-146.517 9.211-.317 10.04-2.775 34.745-8.883-9.729 59.89-4.785 102.123 14.742 125.614 10.153 12.213 23.916 18.669 39.803 18.669 35.852 0 48.562-27.472 53.918-44.899 15.178 11.764 38.039 11.937 53.439 0 5.355 17.427 18.065 44.899 53.917 44.899 15.887 0 29.651-6.456 39.804-18.669 19.527-23.491 24.471-65.724 14.742-125.614 24.844 6.143 25.472 8.566 34.749 8.883 5.264 20.863 7.657 46.583 6.422 70.137zm-127.096 18.757c15.185-2.817 22.548-20.26 13.937-32.982-15.326-22.642-35.997-33.649-63.195-33.649-27.202 0-47.876 11.01-63.202 33.66-8.472 12.522-1.527 29.836 13.276 32.842 2.572.522 5.142.784 7.675.792-5.958 17.088-15.963 30.843-38.387 30.843-11.445 0-20.956-4.461-28.268-13.257-11.934-14.355-23.255-46.749-10.46-119.615 40.177-8.369 86.342-12.7 119.365-12.7s79.188 4.331 119.365 12.7c12.795 72.865 1.474 105.259-10.46 119.615-7.313 8.797-16.824 13.257-28.269 13.257-22.429 0-32.434-13.76-38.39-30.853 2.318-.007 4.664-.218 7.013-.653zm-14.33-15.615c-5.092-1.94-10.857-.765-14.685 2.997-5.601 5.505-12.034 8.069-20.244 8.069s-14.642-2.564-20.244-8.069c-3.84-3.775-9.608-4.932-14.686-2.997-4.559 1.738-9.048 1.385-12.012.784-4.293-.871-6.331-6.05-3.837-9.735 7.862-11.619 21.68-27.066 50.779-27.066 13.934 0 34.357 2.805 50.773 27.057 2.568 3.794.283 8.985-4.251 9.826-2.86.53-7.193.812-11.593-.866zm156.86-103.045c-3.821 11.349-16.161 17.473-27.51 13.654-11.047-3.719-23.451-7.015-36.549-9.889-.176-.046-.354-.085-.535-.117-42.418-9.258-92.083-14.054-127.194-14.054-35.118 0-84.796 4.798-127.219 14.06-.163.03-.324.065-.483.106-13.107 2.876-25.521 6.173-36.576 9.895-11.349 3.818-23.69-2.305-27.51-13.653-3.82-11.349 2.305-23.689 13.653-27.51 53.74-18.09 130.011-26.33 178.135-26.33 48.048 0 124.153 8.215 177.879 26.246.002.001.004.001.005.002.082.028.168.054.25.082 11.349 3.819 17.474 16.159 13.654 27.508z"/></g></svg>