<svg id="Capa_1" enable-background="new 0 0 511.987 511.987" height="512" viewBox="0 0 511.987 511.987" width="512" xmlns="http://www.w3.org/2000/svg"><g><path d="m214.72 197.248v-67.221c-18.612-.988-35.772-15.808-35.772-37.46 0-31.524 36.416-48.618 60.709-29.474 24.27-19.125 60.71-2.082 60.71 29.474 0 21.635-17.155 36.474-35.772 37.463v67.217h-49.875z" fill="#fae0bd"/><path d="m239.657 340.778c-40.147 0-72.693-30.034-72.693-77.963 0-47.93 32.546-95.605 72.693-95.605s72.693 47.676 72.693 95.605c0 47.93-32.546 77.963-72.693 77.963z" fill="#d2896f"/><path d="m114.226 456.952c-58.943 0-106.726-41.455-106.726-92.593 0-60.082 64.116-102.592 128.797-90.608 7.804 1.446 15.754-1.287 20.904-7.326 25.092-29.425 65.377-48.505 110.805-48.505 76.082 0 137.758 53.509 137.758 119.516s-61.676 119.516-137.758 119.516z" fill="#e0b799"/><path d="m114.226 456.952h126.623c-110.4-28.687-139.892-113.426-93.976-183.784-3.366 1.019-6.984 1.249-10.576.584-64.681-11.986-128.797 30.525-128.797 90.607 0 51.138 47.783 92.593 106.726 92.593z" fill="#d99a84"/><path d="m358.905 240.986 47.532-47.532c-12.462-13.859-14.117-36.472 1.193-51.783 22.291-22.291 60.128-8.628 63.769 22.087 30.685 3.637 44.401 41.456 22.087 63.769-15.298 15.298-37.922 13.66-51.785 1.195l-47.53 47.53z" fill="#fbf1cf"/><path d="m418.991 216.166c-5.954-5.954-12.844-10.915-20.445-14.821l-39.641 39.641 35.266 35.266 39.639-39.638c-3.891-7.585-8.844-14.473-14.819-20.448z" fill="#fae0bd"/><path d="m275.047 360.111c-28.388-28.388-30.164-72.638 3.727-106.53s90.616-44.59 119.004-16.202 17.69 85.113-16.202 119.004-78.141 32.116-106.529 3.728z" fill="#d99a84"/><path d="m104.955 393.769c12.639 12.639 33.457 11.494 44.634-2.456l13.482-16.827c2.992-3.735 8.449-4.33 12.176-1.328l21.677 17.458c7.955 6.407 19.461 5.789 26.684-1.434 7.223-7.223 7.841-18.728 1.434-26.684l-22.955-28.502c-19.01-23.603-54.293-25.499-75.723-4.069l-21.408 21.408c-11.718 11.718-11.718 30.717-.001 42.434z" fill="#d2896f"/><path d="m477.836 157.319c-2.756-11.155-9.66-20.811-19.494-27.031-3.5-2.214-8.134-1.171-10.348 2.329-2.214 3.501-1.171 8.134 2.329 10.348 7.709 4.876 12.549 12.574 13.628 21.676.408 3.442 3.122 6.157 6.565 6.565 24.241 2.874 35.725 32.96 17.667 51.018-13.068 13.066-31.118 10.228-41.467.922-2.965-2.665-7.497-2.545-10.318.274l-22.842 22.842c-2.791-5.24-6.288-9.999-10.474-14.186-4.186-4.186-8.945-7.683-14.185-10.474l22.845-22.844c2.82-2.819 2.94-7.352.274-10.318-9.306-10.35-12.146-28.399.92-41.465 2.991-2.991 6.4-5.264 10.134-6.756 3.847-1.537 5.719-5.901 4.182-9.748-1.537-3.846-5.901-5.717-9.748-4.182-5.633 2.251-10.739 5.642-15.176 10.08-15.784 15.783-17.033 39.171-5.827 56.417l-22.99 22.989c-17.09-4.2-35.851-2.172-52.553 3.356-3.541-1.213-7.121-2.305-10.74-3.266-8.778-20.846-22.352-37.119-38.124-46.663v-32.618c20.128-4.276 35.772-21.712 35.772-44.016 0-35.485-38.845-56.326-68.21-38.58-29.405-17.775-68.209 3.155-68.209 38.58 0 22.322 15.653 39.741 35.772 44.013v32.555c-27.274 16.522-44.369 50.861-47.277 83.428-2.971 2.886-5.797 5.884-8.45 8.995-3.353 3.932-8.65 5.779-13.831 4.818-68.318-12.66-137.661 32.322-137.661 97.982 0 48.437 39.173 88.643 90.983 98.02 4.093.742 7.982-1.987 8.716-6.044.738-4.076-1.968-7.978-6.044-8.716-45.576-8.249-78.655-43.265-78.655-83.26 0-56.395 61.124-94.13 119.931-83.233 10.437 1.934 21.156-1.835 27.977-9.835 30.866-36.195 84.703-53.63 136.464-42.584-9.482 5.349-18.283 11.953-25.901 19.571-37.188 37.188-34.708 86.156-3.727 117.136 31.22 31.22 80.215 33.194 117.136-3.727 3.816-3.816 7.362-7.943 10.641-12.29-6.965 56.162-62.389 100.054-129.514 100.054h-139.659c-4.142 0-7.5 3.358-7.5 7.5s3.358 7.5 7.5 7.5h139.658c80.096 0 145.258-56.979 145.258-127.016 0-4.558-.3-9.158-.859-13.711 8.292-19.368 11.928-41.934 6.978-62.077l22.988-22.987c17.135 11.13 40.542 10.048 56.418-5.829 25.093-25.093 12.36-67.3-20.953-75.512zm-291.388-64.751c0-25.564 29.416-38.675 48.567-23.583 2.723 2.146 6.562 2.146 9.284 0 19.172-15.108 48.567-1.962 48.567 23.583 0 18.479-14.771 29.235-28.67 29.974-3.982.211-7.102 3.502-7.102 7.489v32.379c-11.877-3.681-23.63-3.5-34.874-.052v-32.33c0-3.988-3.12-7.278-7.102-7.489-13.898-.739-28.67-11.494-28.67-29.971zm-8.94 145.516c7.681-31.428 31.342-63.373 62.149-63.373 20.049 0 39.541 14.314 52.124 37.405-40.133-5.775-81.542 3.134-114.273 25.968zm228.11 55.599c-3.222 21.05-13.918 41.97-29.345 57.398-30.821 30.821-70.328 29.322-95.923 3.727-27.142-27.142-25.609-66.587 3.727-95.923 31.966-31.965 83.84-40.759 108.398-16.202 11.716 11.716 16.384 29.829 13.143 51zm-250.176 102.32c13.936-17.102 13.279-17.145 14.255-17.251.987-.107.04-.164 22.523 17.706 10.964 8.83 26.738 7.982 36.691-1.972s10.801-25.728 1.972-36.691l-22.956-28.502c-21.76-27.018-62.265-29.272-86.867-4.668l-21.407 21.408c-14.657 14.656-14.659 38.382 0 53.041 15.869 15.87 41.889 14.279 55.789-3.071zm-45.183-39.364 21.407-21.408c18.359-18.359 48.449-16.557 64.579 3.471l22.956 28.502c4.013 4.982 3.628 12.152-.896 16.676-4.524 4.523-11.693 4.909-16.676.896l-21.677-17.458c-6.962-5.608-17.142-4.501-22.733 2.479l-13.483 16.827c-8.295 10.354-23.875 11.444-33.477 1.842-8.795-8.795-8.797-23.031 0-31.827z"/></g></svg>