<svg id="Capa_1" enable-background="new 0 0 511.995 511.995" height="512" viewBox="0 0 511.995 511.995" width="512" xmlns="http://www.w3.org/2000/svg"><g><path d="m453.293 429.426c-12.064 12.064-20.644 26.284-25.746 41.42-3.128 9.28-14.519 12.793-22.324 6.879-14.649-11.1-32.678-16.543-50.743-15.688-10.742.508-19.6-8.347-19.092-19.09.854-18.068-4.591-36.097-15.688-50.744-5.914-7.806-2.401-19.197 6.879-22.325 15.137-5.101 29.357-13.682 41.421-25.746s20.644-26.284 25.746-41.42c3.128-9.28 14.519-12.793 22.324-6.879 14.649 11.1 32.678 16.543 50.743 15.688 10.742-.508 19.6 8.347 19.092 19.09-.854 18.068 4.591 36.097 15.688 50.744 5.914 7.806 2.401 19.197-6.879 22.325-15.137 5.101-29.357 13.682-41.421 25.746z" fill="#90daaa"/><path d="m35.986 26.501c-16.684 0-29.862 14.292-28.371 30.909 9.221 102.754 67.277 181.669 212.528 181.669s203.307-78.915 212.528-181.669c1.491-16.617-11.687-30.909-28.37-30.909z" fill="#cde9fa"/><path d="m35.985 26.501c-16.684 0-29.862 14.292-28.37 30.909 9.221 102.754 67.277 181.669 212.528 181.669 4.919 0 9.728-.098 14.449-.277-98.954-27.788-134.203-130.297-128.504-212.3h-70.103z" fill="#a2ddfd"/><path d="m179.021 177.868h82.244v208.911h-82.244z" fill="#a2ddfd"/><path d="m311.938 447.664h-183.589c-14.409 0-24.793-13.817-20.787-27.657l3.076-10.627c3.875-13.387 16.133-22.601 30.07-22.601h158.871c13.937 0 26.195 9.213 30.07 22.601l3.076 10.627c4.006 13.84-6.379 27.657-20.787 27.657z" fill="#cde9fa"/><path d="m220.143 239.079c115.407 0 175.764-49.821 200.322-121.832-18.169 51.676-127.037 37.473-193.33 9.125-59.784-25.565-127.016-44.108-210.013-17.614 22.653 76.555 83.132 130.321 203.021 130.321z" fill="#d1c4e9"/><path d="m420.467 117.242c-18.164 51.681-127.037 37.478-193.331 9.13 41.276-52.312 211.495-60.81 193.331-9.13z" fill="#b0ade2"/><ellipse cx="357.819" cy="380.01" fill="#a09cdc" rx="46.01" ry="49.22"/><ellipse cx="284.068" cy="375.946" fill="#b0ade2" rx="49.22" ry="46.01" transform="matrix(.707 -.707 .707 .707 -182.633 310.979)"/><ellipse cx="316.792" cy="437.849" fill="#d1c4e9" rx="49.22" ry="46.01" transform="matrix(.707 -.707 .707 .707 -216.819 352.243)"/><path d="m111.021 96.218c-29.07-1.553-60.184 1.777-93.899 12.54 22.653 76.555 83.132 130.321 203.021 130.321 4.919 0 9.73-.098 14.451-.277-71.975-20.21-110.246-79.951-123.573-142.584z" fill="#b0ade2"/><path d="m507.571 376.826c-9.92-13.093-14.954-29.38-14.176-45.861.716-15.134-11.768-27.645-26.938-26.935-16.467.78-32.766-4.254-45.859-14.174-11.867-8.994-29.2-3.664-33.961 10.461-3.072 9.117-7.444 17.667-12.993 25.506-16.939-5.57-35.509-1.844-49.433 10.054-.012-.012-.024-.025-.036-.037-14.713-14.713-36.218-18.532-55.41-11.901v-80.625c103.148-14.657 161.827-78.823 171.376-185.233 1.885-21.004-14.782-39.079-35.841-39.079h-18.763c-4.143 0-7.5 3.358-7.5 7.5s3.357 7.5 7.5 7.5h18.763c12.331 0 21.997 10.528 20.901 22.738-1.064 11.853-2.771 23.136-5.11 33.843-2.091-1.852-4.523-3.555-7.296-5.081-19.845-10.919-57.358-13.557-97.901-6.883-53.832 8.861-79.167 27.696-89.813 38.742-54.745-22.892-121.213-41.737-202.797-18.013-3.436-13.262-5.84-27.472-7.199-42.608-1.093-12.183 8.545-22.738 20.9-22.738h313.123c4.143 0 7.5-3.358 7.5-7.5s-3.357-7.5-7.5-7.5h-313.123c-21.088 0-37.722 18.107-35.84 39.079 9.537 106.272 68.096 170.557 171.376 185.233v135.966h-30.813c-17.172 0-32.5 11.521-37.274 28.015l-3.076 10.627c-5.397 18.645 8.57 37.242 27.991 37.242h7.461c4.143 0 7.5-3.358 7.5-7.5s-3.357-7.5-7.5-7.5h-7.461c-9.42 0-16.202-9.019-13.583-18.071l3.076-10.627c2.929-10.119 12.332-17.186 22.866-17.186h90.362c4.522 15.461 16.154 28.242 32.099 33.818-.99 4.198-1.43 8.044-1.497 12.066h-89.8c-4.143 0-7.5 3.358-7.5 7.5s3.357 7.5 7.5 7.5h91.622c2.324 8.594 6.8 16.402 13.191 22.793 22.912 22.914 62.237 19.283 83.344-8.453 14.688.388 28.999 5.36 40.665 14.199 11.863 8.989 29.205 3.65 33.961-10.461 9.887-29.337 33.095-52.56 62.455-62.455 14.111-4.756 19.462-22.081 10.461-33.961zm-190.24-283.406c36.249-5.967 71.709-3.868 88.233 5.225 9.96 5.48 9.546 11.22 7.826 16.111-.001.001-.001.002-.001.004-11.172 31.775-64.516 31.807-98.072 27.59-24.881-3.126-51.655-9.856-75.065-18.772 15.852-13.664 43.64-24.655 77.079-30.158zm-290.782 20.31c79.563-23.083 144.442-3.209 197.638 19.538 26.83 11.473 59.365 20.208 89.262 23.964 26.432 3.322 59.031 3.82 83.391-6.706-37.164 61.023-104.408 81.052-176.695 81.052-90.916.001-164.742-31.66-193.596-117.848zm202.39 265.549h-42.417v-134.214c21.716 2.017 45.447 2.024 67.244 0v86.661c-15.29 10.975-24.852 28.424-24.827 47.553zm27.899-30.563c16.742-16.744 42.121-16.882 56.73-2.27 9.268 9.268 12.693 23.069 9.365 36.348-16.699-.868-32.435 5.674-43.979 17.218-4.223 4.223-7.723 8.968-10.456 14.061-27.134-9.175-32.925-44.093-11.66-65.357zm93.081 109.099c-15.637 23.28-45.805 26.357-62.627 9.535-15.045-15.044-14.02-40.443 2.27-56.732 15.991-15.992 41.445-17.556 56.73-2.27 13.009 13.01 13.938 33.697 3.627 49.467zm-12.245-72.145c3.067-12.998 1.396-26.381-4.539-37.652 6.888-6.227 15.638-9.728 24.684-9.728 21.235 0 38.511 18.716 38.511 41.72 0 18.222-10.997 34.115-26.501 39.635-4.658-16.079-16.726-28.578-32.155-33.975zm154.644 10.902c-33.781 11.386-60.484 38.069-71.879 71.878-1.491 4.426-6.96 6.123-10.688 3.297-12.112-9.178-26.562-14.908-41.64-16.677 2.469-6.401 3.793-13.175 3.808-20.358 16.577-4.804 29.816-17.848 35.854-34.455l36.477-36.476c2.929-2.929 2.929-7.678 0-10.607-2.93-2.929-7.678-2.93-10.607 0l-22.487 22.486c-1.294-17.98-10.52-33.637-23.978-43.037 5.778-8.515 10.375-17.731 13.673-27.516 1.491-4.425 6.96-6.123 10.688-3.296 15.888 12.038 35.641 18.15 55.627 17.202 6.33-.293 11.546 4.901 11.246 11.244-.944 19.984 5.165 39.739 17.202 55.627 2.821 3.724 1.138 9.194-3.296 10.688z"/></g></svg>